REM DIRINDEX 1\2\6,1\2\7,1\2\8,1\2\9,1\3\10,1\3\11,1\4\12,1\4\13,1\4\14,1\5\15,1\5\16,1\5\17
REM DIRNAME cjc020,folder01,folder02,folder03,folder04,folder05,folder06,folder07,folder08,folder09,folder10,folder11,folder12,folder13,folder14,folder15,folder16
TITLE ""
FILE "1900_2_sec13_1201_1217.mp3" MP3
  TRACK 01 AUDIO
    TITLE "0:"
    INDEX 01 00:00:00
  TRACK 02 AUDIO
    TITLE "12:cjc020_4536"
    INDEX 01 00:03:21
  TRACK 03 AUDIO
    TITLE "0:"
    INDEX 01 00:05:03
  TRACK 04 AUDIO
    TITLE "12:cjc020_4537"
    INDEX 01 00:05:44
  TRACK 05 AUDIO
    TITLE "0:"
    INDEX 01 00:06:65
  TRACK 06 AUDIO
    TITLE "13:cjc020_4538"
    INDEX 01 00:07:66
  TRACK 07 AUDIO
    TITLE "0:"
    INDEX 01 00:09:02
  TRACK 08 AUDIO
    TITLE "14:cjc020_4539"
    INDEX 01 00:09:06
  TRACK 09 AUDIO
    TITLE "0:"
    INDEX 01 00:11:66
  TRACK 10 AUDIO
    TITLE "13:cjc020_4540"
    INDEX 01 00:12:46
  TRACK 11 AUDIO
    TITLE "0:"
    INDEX 01 00:13:47
  TRACK 12 AUDIO
    TITLE "14:cjc020_4541"
    INDEX 01 00:13:53
  TRACK 13 AUDIO
    TITLE "0:"
    INDEX 01 00:16:20
  TRACK 14 AUDIO
    TITLE "13:cjc020_4542"
    INDEX 01 00:16:73
  TRACK 15 AUDIO
    TITLE "0:"
    INDEX 01 00:18:05
  TRACK 16 AUDIO
    TITLE "14:cjc020_4543"
    INDEX 01 00:18:09
  TRACK 17 AUDIO
    TITLE "0:"
    INDEX 01 00:19:30
  TRACK 18 AUDIO
    TITLE "13:cjc020_4544"
    INDEX 01 00:20:12
  TRACK 19 AUDIO
    TITLE "0:"
    INDEX 01 00:21:06
  TRACK 20 AUDIO
    TITLE "14:cjc020_4545"
    INDEX 01 00:21:15
  TRACK 21 AUDIO
    TITLE "0:"
    INDEX 01 00:23:38
  TRACK 22 AUDIO
    TITLE "13:cjc020_4546"
    INDEX 01 00:24:20
  TRACK 23 AUDIO
    TITLE "0:"
    INDEX 01 00:25:27
  TRACK 24 AUDIO
    TITLE "14:cjc020_4547"
    INDEX 01 00:25:31
  TRACK 25 AUDIO
    TITLE "0:"
    INDEX 01 00:27:45
  TRACK 26 AUDIO
    TITLE "13:cjc020_4548"
    INDEX 01 00:28:25
  TRACK 27 AUDIO
    TITLE "0:"
    INDEX 01 00:29:27
  TRACK 28 AUDIO
    TITLE "14:cjc020_4549"
    INDEX 01 00:29:29
  TRACK 29 AUDIO
    TITLE "0:"
    INDEX 01 00:32:11
  TRACK 30 AUDIO
    TITLE "13:cjc020_4550"
    INDEX 01 00:32:66
  TRACK 31 AUDIO
    TITLE "0:"
    INDEX 01 00:34:18
  TRACK 32 AUDIO
    TITLE "14:cjc020_4551"
    INDEX 01 00:34:24
  TRACK 33 AUDIO
    TITLE "0:"
    INDEX 01 00:36:68
  TRACK 34 AUDIO
    TITLE "13:cjc020_4552"
    INDEX 01 00:37:50
  TRACK 35 AUDIO
    TITLE "0:"
    INDEX 01 00:38:69
  TRACK 36 AUDIO
    TITLE "14:cjc020_4553"
    INDEX 01 00:39:00
  TRACK 37 AUDIO
    TITLE "0:"
    INDEX 01 00:40:05
  TRACK 38 AUDIO
    TITLE "13:cjc020_4554"
    INDEX 01 00:40:62
  TRACK 39 AUDIO
    TITLE "0:"
    INDEX 01 00:41:63
  TRACK 40 AUDIO
    TITLE "14:cjc020_4555"
    INDEX 01 00:41:69
  TRACK 41 AUDIO
    TITLE "0:"
    INDEX 01 00:43:68
  TRACK 42 AUDIO
    TITLE "13:cjc020_4556"
    INDEX 01 00:44:50
  TRACK 43 AUDIO
    TITLE "0:"
    INDEX 01 00:45:51
  TRACK 44 AUDIO
    TITLE "14:cjc020_4557"
    INDEX 01 00:45:55
  TRACK 45 AUDIO
    TITLE "0:"
    INDEX 01 00:47:66
  TRACK 46 AUDIO
    TITLE "13:cjc020_4558"
    INDEX 01 00:48:42
  TRACK 47 AUDIO
    TITLE "0:"
    INDEX 01 00:49:53
  TRACK 48 AUDIO
    TITLE "14:cjc020_4559"
    INDEX 01 00:49:59
  TRACK 49 AUDIO
    TITLE "0:"
    INDEX 01 00:52:02
  TRACK 50 AUDIO
    TITLE "13:cjc020_4560"
    INDEX 01 00:52:57
  TRACK 51 AUDIO
    TITLE "0:"
    INDEX 01 00:53:60
  TRACK 52 AUDIO
    TITLE "14:cjc020_4561"
    INDEX 01 00:53:62
  TRACK 53 AUDIO
    TITLE "0:"
    INDEX 01 00:56:12
  TRACK 54 AUDIO
    TITLE "13:cjc020_4562"
    INDEX 01 00:56:69
  TRACK 55 AUDIO
    TITLE "0:"
    INDEX 01 00:57:72
  TRACK 56 AUDIO
    TITLE "14:cjc020_4563"
    INDEX 01 00:57:74
  TRACK 57 AUDIO
    TITLE "0:"
    INDEX 01 01:01:38
  TRACK 58 AUDIO
    TITLE "13:cjc020_4564"
    INDEX 01 01:02:18
  TRACK 59 AUDIO
    TITLE "0:"
    INDEX 01 01:03:26
  TRACK 60 AUDIO
    TITLE "14:cjc020_4565"
    INDEX 01 01:03:29
  TRACK 61 AUDIO
    TITLE "0:"
    INDEX 01 01:07:19
  TRACK 62 AUDIO
    TITLE "13:cjc020_4566"
    INDEX 01 01:07:74
  TRACK 63 AUDIO
    TITLE "0:"
    INDEX 01 01:09:10
  TRACK 64 AUDIO
    TITLE "14:cjc020_4567"
    INDEX 01 01:09:12
  TRACK 65 AUDIO
    TITLE "0:"
    INDEX 01 01:11:74
  TRACK 66 AUDIO
    TITLE "13:cjc020_4568"
    INDEX 01 01:12:56
  TRACK 67 AUDIO
    TITLE "0:"
    INDEX 01 01:13:57
  TRACK 68 AUDIO
    TITLE "14:cjc020_4569"
    INDEX 01 01:13:63
  TRACK 69 AUDIO
    TITLE "0:"
    INDEX 01 01:16:38
  TRACK 70 AUDIO
    TITLE "13:cjc020_4570"
    INDEX 01 01:17:22
  TRACK 71 AUDIO
    TITLE "0:"
    INDEX 01 01:18:29
  TRACK 72 AUDIO
    TITLE "14:cjc020_4571"
    INDEX 01 01:18:47
  TRACK 73 AUDIO
    TITLE "0:"
    INDEX 01 01:21:35
